<svg width="146" height="135" viewBox="0 0 146 135" fill="none" xmlns="http://www.w3.org/2000/svg">
<rect x="0.218262" y="61.8191" width="145.465" height="5.2299" fill="#407BFF"/>
<rect opacity="0.3" x="0.218262" y="61.8191" width="38.9319" height="5.2299" fill="white"/>
<path d="M39.771 67.0491H36.3843L38.1568 132.597H39.771H41.3851L43.1619 67.0491H39.771Z" fill="#407BFF"/>
<path opacity="0.3" d="M38.1568 132.597H39.771V68.4563L36.4399 69.0655L38.1568 132.597Z" fill="white"/>
<path d="M7.67233 67.0491H4.28564L6.0582 132.597H7.67233H9.28647L11.059 67.0491H7.67233Z" fill="#407BFF"/>
<path opacity="0.3" d="M6.05809 132.597H7.67222V68.4563L4.33691 69.0655L6.05809 132.597Z" fill="white"/>
<path d="M138.229 67.0491H134.842L136.615 132.597H138.229H139.843L141.62 67.0491H138.229Z" fill="#407BFF"/>
<path opacity="0.3" d="M136.615 132.597H138.229V68.4563L134.898 69.0655L136.615 132.597Z" fill="white"/>
<path d="M106.13 67.0491H102.744L104.516 132.597H106.13H107.744L109.517 67.0491H106.13Z" fill="#407BFF"/>
<path opacity="0.3" d="M104.516 132.597H106.13V68.4563L102.799 69.0655L104.516 132.597Z" fill="white"/>
<path d="M69.2663 33.8205H34.6802C34.1109 33.7979 33.5651 34.0496 33.212 34.4977C32.8588 34.9457 32.7409 35.536 32.8948 36.0858L37.5017 58.1166C37.8063 59.3969 38.9211 60.3196 40.2333 60.3776H74.8452C75.4135 60.3997 75.9582 60.1486 76.3111 59.7016C76.6641 59.2547 76.7828 58.6657 76.6306 58.1166L72.0194 36.0858C71.7142 34.7964 70.5879 33.8696 69.2663 33.8205Z" fill="#263238"/>
<path d="M40.5331 59.1205C39.6481 59.0606 38.9018 58.4374 38.6835 57.5759L34.0765 35.5451C33.9967 35.2498 34.055 34.9342 34.2349 34.6871C34.4217 34.4755 34.6941 34.3603 34.9757 34.3739H69.5875C70.4725 34.4337 71.2188 35.0569 71.4371 35.9184L76.044 57.9492C76.1239 58.2445 76.0656 58.5601 75.8856 58.8073C75.7001 59.0204 75.4268 59.136 75.1449 59.1205H40.5331Z" fill="white"/>
<path opacity="0.4" d="M66.6463 57.3571L62.2792 36.4675C62.2295 36.2171 62.2936 35.9576 62.4542 35.7594C62.6147 35.5612 62.855 35.4449 63.1098 35.4421H68.7271C69.1283 35.4452 69.4735 35.727 69.5577 36.12L73.9249 56.9924C73.9746 57.2428 73.9104 57.5024 73.7499 57.7006C73.5893 57.8988 73.349 58.0151 73.0943 58.0178H67.4769C67.0809 58.0166 66.7374 57.7433 66.6463 57.3571Z" fill="#407BFF"/>
<path d="M36.9579 37.27L36.7695 36.3647H43.7056L43.894 37.27H36.9579Z" fill="#407BFF"/>
<path d="M40.1606 39.5181L39.9722 38.6128H52.1274L52.3201 39.5181H40.1606Z" fill="#EBEBEB"/>
<path d="M40.803 41.7619L40.6104 40.8567H54.2384L54.4268 41.7619H40.803Z" fill="#EBEBEB"/>
<path d="M41.4408 44.01L41.2524 43.1047H52.2217L52.4144 44.01H41.4408Z" fill="#EBEBEB"/>
<path d="M39.0686 47.6526L38.876 46.7473H43.2645L43.4529 47.6526H39.0686Z" fill="#407BFF"/>
<path d="M42.267 49.8965L42.0786 48.9912H47.422L47.6146 49.8965H42.267Z" fill="#EBEBEB"/>
<path d="M48.8948 49.8965L48.7021 48.9912H54.0498L54.2382 49.8965H48.8948Z" fill="#EBEBEB"/>
<path d="M42.9096 52.1445L42.7212 51.2393H60.7892L60.9776 52.1445H42.9096Z" fill="#EBEBEB"/>
<path d="M43.5473 54.3884L43.3589 53.4832H57.1368L57.3252 54.3884H43.5473Z" fill="#EBEBEB"/>
<path d="M85.4247 60.2446H39.8864C38.6447 60.2446 37.8398 60.9525 38.101 61.8192H88.1563C87.8994 60.9525 86.6663 60.2446 85.4247 60.2446Z" fill="#263238"/>
<path opacity="0.1" d="M24.9227 28.2516L20.5513 7.37486C20.503 7.12512 20.5678 6.8668 20.7282 6.66962C20.8886 6.47245 21.128 6.35675 21.3819 6.35376H56.7473C57.1471 6.35641 57.4919 6.63602 57.5779 7.02734L61.9493 27.8869C61.999 28.1373 61.9349 28.3968 61.7743 28.595C61.6138 28.7932 61.3735 28.9095 61.1187 28.9123H25.7533C25.3573 28.911 25.0138 28.6378 24.9227 28.2516Z" fill="#407BFF"/>
<path d="M37.493 7.04033H30.0688L29.9019 6.23804H37.326L37.493 7.04033Z" fill="#407BFF"/>
<path opacity="0.4" d="M36.2856 8.31889H33.3057L33.1387 7.5166H36.1186L36.2856 8.31889Z" fill="#407BFF"/>
<path opacity="0.4" d="M41.2441 8.31889H36.6543L36.4873 7.5166H41.0771L41.2441 8.31889Z" fill="#407BFF"/>
<path opacity="0.4" d="M43.2432 9.59306H33.5713L33.4043 8.79077H43.0805L43.2432 9.59306Z" fill="#407BFF"/>
<path opacity="0.4" d="M42.0146 10.8716H33.8369L33.6699 10.0693H41.8476L42.0146 10.8716Z" fill="#407BFF"/>
<path opacity="0.4" d="M47.4392 24.4333H42.2329L42.3999 25.2313H47.6062L47.4392 24.4333Z" fill="#407BFF"/>
<path d="M40.9486 22.6829H33.3232L33.1562 21.8806H40.7816L40.9486 22.6829Z" fill="#407BFF"/>
<path opacity="0.4" d="M44.014 25.7075H36.9238L37.0908 26.5098H44.181L44.014 25.7075Z" fill="#407BFF"/>
<path opacity="0.4" d="M41.8645 24.4333H36.6582L36.8252 25.2313H42.0315L41.8645 24.4333Z" fill="#407BFF"/>
<path opacity="0.4" d="M46.8057 23.1548H36.3931L36.56 23.9571H46.9727L46.8057 23.1548Z" fill="#407BFF"/>
<path d="M37.2319 1.08535H28.8315L28.6646 0.287354H37.0649L37.2319 1.08535Z" fill="#407BFF"/>
<path opacity="0.4" d="M41.3809 4.11426H32.1157L32.2827 4.91655H41.5436L41.3809 4.11426Z" fill="#407BFF"/>
<path opacity="0.4" d="M39.5269 2.84009H31.8501L32.0171 3.63809H39.6939L39.5269 2.84009Z" fill="#407BFF"/>
<path opacity="0.4" d="M40.0362 1.56152H31.5845L31.7515 2.36381H40.2032L40.0362 1.56152Z" fill="#407BFF"/>
<path d="M37.1378 12.948H31.2978L31.1309 12.1458H36.9709L37.1378 12.948Z" fill="#407BFF"/>
<path opacity="0.4" d="M46.3087 15.9727H34.8984L35.0654 16.7749H46.4714L46.3087 15.9727Z" fill="#407BFF"/>
<path opacity="0.4" d="M39.3601 14.6985H34.6333L34.8003 15.5008H39.5271L39.3601 14.6985Z" fill="#407BFF"/>
<path opacity="0.4" d="M44.489 14.6985H39.7622L39.9292 15.5008H44.656L44.489 14.6985Z" fill="#407BFF"/>
<path opacity="0.4" d="M44.7803 13.4199H34.3677L34.5347 14.2222H44.943L44.7803 13.4199Z" fill="#407BFF"/>
<path opacity="0.4" d="M44.7588 19.804H35.6948L35.8618 20.602H44.9258L44.7588 19.804Z" fill="#407BFF"/>
<path opacity="0.4" d="M38.0671 18.5256H35.4297L35.5967 19.3279H38.2298L38.0671 18.5256Z" fill="#407BFF"/>
<path opacity="0.4" d="M42.1902 18.5256H38.4268L38.5937 19.3279H42.3572L42.1902 18.5256Z" fill="#407BFF"/>
<path opacity="0.4" d="M45.5767 17.2512H35.1641L35.331 18.0492H45.7437L45.5767 17.2512Z" fill="#407BFF"/>
<path opacity="0.4" d="M53.7761 17.0367H50.0469L49.8799 16.2344H53.6134L53.7761 17.0367Z" fill="#407BFF"/>
<path opacity="0.4" d="M59.9841 17.0367H54.2383L54.0713 16.2344H59.8171L59.9841 17.0367Z" fill="#407BFF"/>
<path opacity="0.4" d="M62.4244 18.3152H50.312L50.145 17.5129H62.2575L62.4244 18.3152Z" fill="#407BFF"/>
<path opacity="0.4" d="M60.8147 19.5894H50.5776L50.4106 18.7871H60.6478L60.8147 19.5894Z" fill="#407BFF"/>
<path opacity="0.4" d="M65.4004 11.9614H53.8018L53.9687 12.7594H65.5674L65.4004 11.9614Z" fill="#407BFF"/>
<path opacity="0.4" d="M63.1482 10.6829H53.5361L53.7031 11.4852H63.3109L63.1482 10.6829Z" fill="#407BFF"/>
<path d="M61.4096 9.40869H50.8257L50.9927 10.2067H61.5766L61.4096 9.40869Z" fill="#407BFF"/>
<path opacity="0.4" d="M65.9223 24.6951H51.6392L51.8061 25.4974H66.0893L65.9223 24.6951Z" fill="#407BFF"/>
<path opacity="0.4" d="M57.2911 23.4207H51.374L51.541 24.2187H57.4581L57.2911 23.4207Z" fill="#407BFF"/>
<path opacity="0.4" d="M63.7135 23.4207H57.7964L57.9634 24.2187H63.8804L63.7135 23.4207Z" fill="#407BFF"/>
<path opacity="0.4" d="M64.1414 22.1423H51.1084L51.2754 22.9446H64.3083L64.1414 22.1423Z" fill="#407BFF"/>
<path opacity="0.4" d="M63.7816 28.522H52.4355L52.6025 29.3243H63.9486L63.7816 28.522Z" fill="#407BFF"/>
<path opacity="0.4" d="M55.4715 27.2478H52.1704L52.3374 28.0501H55.6384L55.4715 27.2478Z" fill="#407BFF"/>
<path opacity="0.4" d="M60.635 27.2478H55.9253L56.0923 28.0501H60.8019L60.635 27.2478Z" fill="#407BFF"/>
<path opacity="0.4" d="M64.942 25.9692H51.9048L52.0718 26.7715H65.1047L64.942 25.9692Z" fill="#407BFF"/>
<path opacity="0.4" d="M30.2275 29.5129H21.3477L21.5146 30.3152H30.3945L30.2275 29.5129Z" fill="#407BFF"/>
<path opacity="0.4" d="M27.6028 28.2388H21.082L21.249 29.0368H27.7655L27.6028 28.2388Z" fill="#407BFF"/>
<path opacity="0.4" d="M34.5775 28.2388H28.061L28.228 29.0368H34.7488L34.5775 28.2388Z" fill="#407BFF"/>
<path opacity="0.4" d="M33.8541 26.9602H20.8169L20.9839 27.7625H34.0168L33.8541 26.9602Z" fill="#407BFF"/>
<path d="M133.562 53.4832H128.064L128.707 61.8193H132.92L133.562 53.4832Z" fill="#407BFF"/>
<path opacity="0.4" d="M133.562 53.4832H128.064L128.707 61.8193H132.92L133.562 53.4832Z" fill="white"/>
<path d="M13.7564 47.6953H21.6601L18.9628 61.8191H11.0591L13.7564 47.6953Z" fill="#263238"/>
<path d="M23.8221 43.9114H12.6602L15.7857 61.8192H26.9476L23.8221 43.9114Z" fill="#407BFF"/>
<path d="M12.001 43.9114H12.6603L15.7858 61.8192H15.1265L12.001 43.9114Z" fill="#407BFF"/>
<path opacity="0.3" d="M12.001 43.9114H12.6603L15.7858 61.8192H15.1265L12.001 43.9114Z" fill="black"/>
<path d="M17.3917 59.9015L14.9341 45.825H22.2212L24.6746 59.9015H17.3917Z" fill="white"/>
<path opacity="0.6" d="M24.3273 59.9015L21.874 45.825H22.2208L24.6741 59.9015H24.3273Z" fill="#407BFF"/>
<path d="M79.4727 21.3457C79.6313 21.6901 79.5799 22.056 79.3527 22.1593C79.1256 22.2626 78.817 22.0689 78.6584 21.7288C78.4999 21.3887 78.5556 21.0185 78.7784 20.9152C79.0013 20.8118 79.3141 20.984 79.4727 21.3457Z" fill="#263238"/>
<path d="M79.61 22.0259C79.61 22.0259 79.7471 24.3765 79.3271 25.7369C80.1843 26.0253 81.11 25.3064 81.11 25.3064L79.61 22.0259Z" fill="#FF5652"/>
<path d="M79.5156 18.5002C79.4792 18.5304 79.4342 18.5485 79.387 18.5518C78.8213 18.5669 78.2969 18.8534 77.977 19.3224C77.9387 19.3946 77.8643 19.4399 77.7829 19.4408C77.7015 19.4417 77.6261 19.3979 77.5862 19.3267C77.5463 19.2554 77.5483 19.168 77.5913 19.0986C77.9853 18.4978 78.6455 18.1268 79.3613 18.1041C79.4574 18.0988 79.5461 18.156 79.5812 18.2461C79.6162 18.3361 79.5898 18.4386 79.5156 18.5002Z" fill="#263238"/>
<path d="M92.0945 20.812C93.4188 25.4185 94.8973 28.9917 96.7016 31.0323C96.7016 31.0323 96.7359 34.6529 90.5945 36.3749C83.8402 38.2691 86.4288 33.9124 86.4288 33.9124C89.8573 31.9966 89.5316 29.1036 86.9516 28.0015L92.0945 20.812Z" fill="#FF8B7B"/>
<path d="M98.133 30.1496C98.013 28.4663 97.8545 26.5462 96.8216 26.4946C95.6816 26.4429 89.0816 29.4048 87.6716 31.4928C86.2616 33.5807 89.0173 35.6256 89.0173 35.6256L98.133 30.1496Z" fill="#263238"/>
<path d="M84.6243 56.217L78.9243 56.0276L79.0272 60.8235C79.0272 60.8235 83.9986 60.3068 84.2172 58.9938L84.6243 56.217Z" fill="#FF8B7B"/>
<path d="M75.9115 58.3823L75.3115 60.8362L79.0272 60.8276L78.9244 56.0317L75.9115 58.3823Z" fill="#FF8B7B"/>
<path d="M107.501 36.2887L107.381 37.52C107.343 37.9161 107.291 38.3035 107.24 38.6953C107.141 39.4745 107.017 40.2537 106.884 41.0286C106.627 42.5828 106.293 44.1283 105.907 45.6824C105.515 47.2664 105.04 48.8284 104.484 50.3621C104.188 51.1499 103.88 51.9377 103.511 52.7385C103.14 53.5784 102.71 54.3912 102.226 55.1708C102.11 55.3732 101.964 55.6014 101.823 55.7908C101.681 55.9802 101.544 56.2213 101.394 56.4193C101.244 56.6174 101.086 56.8498 100.888 57.0522L100.61 57.3707C100.51 57.4883 100.404 57.6004 100.293 57.7065C99.4336 58.5516 98.4268 59.2303 97.3226 59.7084C95.6287 60.4383 93.831 60.8959 91.9955 61.0645C91.1598 61.1635 90.3326 61.2023 89.5226 61.2238C88.7126 61.2453 87.9026 61.2238 87.1055 61.1807C86.3084 61.1377 85.5198 61.0688 84.7355 60.9741C83.9512 60.8794 83.1884 60.7545 82.3569 60.5866L82.4941 56.0878C85.2306 55.6071 87.9355 54.9602 90.5941 54.1505C91.1854 53.9574 91.7662 53.7333 92.3341 53.4789C92.8176 53.274 93.2798 53.0216 93.7141 52.7256C93.9666 52.5727 94.1807 52.3636 94.3398 52.1142L94.4641 51.9162C94.5217 51.8316 94.5746 51.744 94.6226 51.6536C94.6838 51.5548 94.7396 51.4527 94.7898 51.3479C94.8455 51.236 94.9055 51.1327 94.9612 51.0078C95.4647 49.9036 95.8789 48.7605 96.1998 47.5896C96.5512 46.3239 96.8812 45.0065 97.1469 43.6418C97.4126 42.2771 97.6698 40.8995 97.9055 39.5089L98.2312 37.4167L98.5269 35.3804L107.501 36.2887Z" fill="#407BFF"/>
<path opacity="0.2" d="M107.501 36.2887L107.381 37.52C107.343 37.9161 107.291 38.3035 107.24 38.6953C107.141 39.4745 107.017 40.2537 106.884 41.0286C106.627 42.5828 106.293 44.1283 105.907 45.6824C105.515 47.2664 105.04 48.8284 104.484 50.3621C104.188 51.1499 103.88 51.9377 103.511 52.7385C103.14 53.5784 102.71 54.3912 102.226 55.1708C102.11 55.3732 101.964 55.6014 101.823 55.7908C101.681 55.9802 101.544 56.2213 101.394 56.4193C101.244 56.6174 101.086 56.8498 100.888 57.0522L100.61 57.3707C100.51 57.4883 100.404 57.6004 100.293 57.7065C99.4336 58.5516 98.4268 59.2303 97.3226 59.7084C95.6287 60.4383 93.831 60.8959 91.9955 61.0645C91.1598 61.1635 90.3326 61.2023 89.5226 61.2238C88.7126 61.2453 87.9026 61.2238 87.1055 61.1807C86.3084 61.1377 85.5198 61.0688 84.7355 60.9741C83.9512 60.8794 83.1884 60.7545 82.3569 60.5866L82.4941 56.0878C85.2306 55.6071 87.9355 54.9602 90.5941 54.1505C91.1854 53.9574 91.7662 53.7333 92.3341 53.4789C92.8176 53.274 93.2798 53.0216 93.7141 52.7256C93.9666 52.5727 94.1807 52.3636 94.3398 52.1142L94.4641 51.9162C94.5217 51.8316 94.5746 51.744 94.6226 51.6536C94.6838 51.5548 94.7396 51.4527 94.7898 51.3479C94.8455 51.236 94.9055 51.1327 94.9612 51.0078C95.4647 49.9036 95.8789 48.7605 96.1998 47.5896C96.5512 46.3239 96.8812 45.0065 97.1469 43.6418C97.4126 42.2771 97.6698 40.8995 97.9055 39.5089L98.2312 37.4167L98.5269 35.3804L107.501 36.2887Z" fill="black"/>
<path d="M82.1945 42.0101C84.3196 51.2136 85.5156 60.6089 85.7645 70.0534H110.857C110.995 66.9408 110.472 49.389 107.947 36.7105C107.495 34.3906 106.13 32.352 104.162 31.0556C102.194 29.7593 99.7888 29.3147 97.4902 29.8224L97.3702 29.8525C94.2374 30.5672 89.7417 31.7209 87.0845 32.7326L86.9774 32.7757C83.3015 34.2113 81.2552 38.1623 82.1945 42.0101Z" fill="#407BFF"/>
<path opacity="0.2" d="M83.8271 50.0608C84.0243 51.2705 84.2257 52.5534 84.41 53.8966C86.4629 51.7441 87.1143 45.1487 87.1143 45.1487L83.8271 50.0608Z" fill="black"/>
<path d="M62.9815 56.5311L57.2857 55.9973L57.0972 60.7889C59.0158 61.3209 61.0698 60.7387 62.4286 59.2778L62.9815 56.5311Z" fill="#FF8B7B"/>
<path d="M54.5772 57.4094L52.7515 60.7028L57.1143 60.7889L57.3029 55.9973L54.5772 57.4094Z" fill="#FF8B7B"/>
<path d="M91.6098 39.8017C91.2155 40.5551 90.8641 41.2223 90.4698 41.9112C90.0755 42.6 89.6984 43.2716 89.2912 43.9389C88.4855 45.282 87.6498 46.5994 86.7669 47.9038C84.9944 50.5751 83.0307 53.1132 80.8912 55.498C79.7455 56.7819 78.5002 57.9724 77.1669 59.0583C76.9998 59.2004 76.8026 59.3381 76.6184 59.4888C76.4341 59.6395 76.2712 59.76 75.9969 59.9193C75.7226 60.0786 75.4912 60.2379 75.2426 60.3757C74.9941 60.5134 74.7369 60.6383 74.4841 60.7502C73.5387 61.1625 72.5494 61.4644 71.5355 61.65C69.7621 61.9503 67.9548 61.9909 66.1698 61.7705C65.3338 61.6743 64.5039 61.5305 63.6841 61.34C63.2755 61.2453 62.8726 61.1377 62.4755 61.0171C62.0469 60.8966 61.6998 60.7631 61.2412 60.5866L61.9484 56.1438C64.6398 55.7778 67.5498 55.3086 69.5555 54.3959C70.0007 54.2121 70.42 53.9704 70.8026 53.677C70.9567 53.5705 71.1002 53.4494 71.2312 53.3153C71.2612 53.2766 71.3941 53.1603 71.4926 53.0656C71.5912 52.9709 71.7069 52.8805 71.8141 52.7686C72.7314 51.8554 73.5903 50.8849 74.3855 49.8626C76.1109 47.6267 77.7229 45.3047 79.2155 42.9056C79.9869 41.6873 80.7369 40.4474 81.4869 39.2033L82.5926 37.3349L83.6598 35.4966L91.6098 39.8017Z" fill="#407BFF"/>
<path d="M84.7229 129.662H80.0343L77.6729 118.748H82.3657L84.7229 129.662Z" fill="#FF8B7B"/>
<path d="M79.7728 128.654H85.0442C85.2323 128.661 85.394 128.79 85.4428 128.973L86.3685 133.166C86.4133 133.372 86.3613 133.588 86.2275 133.751C86.0938 133.914 85.893 134.006 85.6828 134.001C83.8442 133.971 82.9485 133.863 80.63 133.863C79.2028 133.863 77.3728 134.01 75.4057 134.01C73.4385 134.01 73.1771 132.055 73.9828 131.879C77.6 131.082 77.84 129.989 79.01 128.943C79.2197 128.755 79.4917 128.652 79.7728 128.654Z" fill="#263238"/>
<g opacity="0.2">
<path d="M82.37 118.753H77.6729L78.9843 124.797L83.5871 124.379L82.37 118.753Z" fill="black"/>
</g>
<path d="M90.5902 15.2756C92.3044 19.6323 93.4959 22.0992 92.3644 25.2634C90.6502 30.0205 84.5687 30.5027 81.6116 26.74C78.9544 23.3519 76.6316 16.7953 79.9873 13.1919C81.4815 11.5677 83.7069 10.8372 85.8675 11.2618C88.0282 11.6864 89.8155 13.2054 90.5902 15.2756Z" fill="#FF8B7B"/>
<path d="M82.3528 21.8021C81.6499 22.7492 81.1099 23.4682 81.1099 23.4682C81.1099 23.4682 79.6656 19.8648 80.2185 18.2116C79.5156 16.8125 78.0971 18.8746 77.5613 16.1495C77.0256 13.4244 79.3442 10.4969 80.2185 9.88992C80.3086 10.2075 80.3491 10.5371 80.3385 10.8672C82.7009 8.94133 85.7034 7.9888 88.7385 8.20233C88.4848 8.5813 88.3233 9.01485 88.2671 9.46802C88.2671 9.46802 93.3542 10.329 94.5113 13.2221C94.1021 13.0258 93.6702 12.8812 93.2256 12.7915C94.1582 14.1347 94.5276 15.7923 94.2542 17.4066C93.8851 19.7608 93.6931 22.1397 93.6799 24.5229C93.7271 25.7455 90.3885 28.0832 88.3528 25.5863C86.3171 23.0893 82.3528 21.8021 82.3528 21.8021Z" fill="#263238"/>
<path d="M84.4742 20.8636C84.7397 21.8784 84.6644 22.9528 84.2599 23.9202C83.7156 25.2117 82.5971 24.9017 82.0442 23.7738C81.5428 22.7621 81.2214 20.8851 82.1085 19.9853C82.9956 19.0856 84.1399 19.6452 84.4742 20.8636Z" fill="#FF8B7B"/>
<path d="M93.2855 70.0364C93.2855 70.0364 71.497 77.975 70.8584 88.4751C69.6755 107.818 77.5484 123.131 77.5484 123.131L84.7655 122.356C84.7655 122.356 83.4798 116.131 82.5241 98.6092C81.3198 76.5887 118.524 99.1258 110.861 70.0364H93.2855Z" fill="#407BFF"/>
<path opacity="0.5" d="M93.2855 70.0364C93.2855 70.0364 71.497 77.975 70.8584 88.4751C69.6755 107.818 77.5484 123.131 77.5484 123.131L84.7655 122.356C84.7655 122.356 83.4798 116.131 82.5241 98.6092C81.3198 76.5887 118.524 99.1258 110.861 70.0364H93.2855Z" fill="white"/>
<path d="M75.5515 120.462C75.5172 120.462 76.7001 123.682 76.7001 123.682L85.7001 122.795L85.2501 119.868L75.5515 120.462Z" fill="#407BFF"/>
<path d="M64.4559 130.2H59.763L58.3916 119.282H63.0845L64.4559 130.2Z" fill="#FF8B7B"/>
<path d="M59.7286 128.65H64.8714C65.0628 128.648 65.2293 128.781 65.27 128.969L66.2043 133.157C66.2596 133.365 66.2143 133.587 66.082 133.757C65.9496 133.926 65.7457 134.023 65.5314 134.018C63.6843 133.988 61.01 133.885 58.6743 133.889C55.9572 133.889 55.4386 134.04 52.2457 134.044C50.3172 134.044 49.7814 132.094 50.5872 131.892C54.2557 131.082 55.43 130.992 58.5972 129.024C58.9315 128.795 59.3238 128.665 59.7286 128.65Z" fill="#263238"/>
<path opacity="0.2" d="M58.3955 119.286L59.1412 125.232L63.7955 124.913L63.0884 119.286H58.3955Z" fill="black"/>
<path d="M85.7642 70.0364C85.7642 70.0364 50.0642 73.2178 50.4499 91.2303C50.8485 109.966 57.817 122.601 57.817 122.601H64.7856C64.7856 122.601 63.4656 112.881 63.7013 94.4376C63.7699 88.9142 74.887 87.0888 85.7385 86.4431C95.1156 85.8834 103.893 80.515 107.536 71.8058L108.286 70.0364H85.7642Z" fill="#407BFF"/>
<path opacity="0.5" d="M85.7642 70.0364C85.7642 70.0364 50.0642 73.2178 50.4499 91.2303C50.8485 109.966 57.817 122.601 57.817 122.601H64.7856C64.7856 122.601 63.4656 112.881 63.7013 94.4376C63.7699 88.9142 74.887 87.0888 85.7385 86.4431C95.1156 85.8834 103.893 80.515 107.536 71.8058L108.286 70.0364H85.7642Z" fill="white"/>
<path d="M56.1841 120.72C56.1541 120.72 57.3798 123.957 57.3798 123.957L65.797 123.35L65.3041 120.423L56.1841 120.72Z" fill="#407BFF"/>
<path d="M95.1372 49.7938L90.6072 67.3284C89.4489 71.8206 88.8642 76.4426 88.8672 81.0831V89.2327C88.8672 91.2905 90.3758 92.9609 92.2401 92.9609H115.46C117.324 92.9609 118.833 91.2905 118.833 89.2327V81.0831C118.831 76.4425 119.418 71.8205 120.577 67.3284L124.576 51.8301C125.193 49.4494 123.573 47.0945 121.331 47.0945H98.3772C96.8097 47.144 95.4756 48.2556 95.1372 49.7938Z" fill="#263238"/>
<path d="M66.2557 84.4711L67.0143 88.8193C67.4172 91.1053 69.4186 92.9608 71.4886 92.9608H97.3015C99.3715 92.9608 100.73 91.1053 100.327 88.8193L99.5686 84.4711C99.11 81.8666 96.8343 79.7571 94.4772 79.7571H69.7143C67.34 79.7571 65.8015 81.8666 66.2557 84.4711Z" fill="#263238"/>
<path d="M99.7872 97.3263H86.2658L84.9458 92.9609H101.107L99.7872 97.3263Z" fill="#407BFF"/>
<rect x="90.6113" y="97.3262" width="4.83" height="32.4646" fill="#407BFF"/>
<path opacity="0.7" d="M95.4413 129.791H90.6113V98.1055L95.4413 98.6006V129.791Z" fill="white"/>
<path opacity="0.7" d="M94.2627 129.791H93.1099V98.3594L94.2627 98.4799V129.791Z" fill="white"/>
<path d="M104.133 134.811H81.9157C81.6501 134.808 81.4158 134.635 81.3341 134.381C81.2525 134.127 81.3417 133.849 81.5557 133.691L85.0786 131.108C86.7722 129.862 88.8165 129.19 90.9157 129.188H95.1372C97.235 129.19 99.2778 129.863 100.97 131.108L104.497 133.691C104.712 133.85 104.801 134.129 104.718 134.383C104.635 134.638 104.399 134.81 104.133 134.811Z" fill="#407BFF"/>
</svg>
