<svg width="1342" height="635" viewBox="0 0 1342 635" fill="none" xmlns="http://www.w3.org/2000/svg">
<g opacity="0.0636858">
<mask id="mask0_1_2876" style="mask-type:luminance" maskUnits="userSpaceOnUse" x="81" y="-136" width="1261" height="1258">
<path fill-rule="evenodd" clip-rule="evenodd" d="M81.2173 -135.5H1341.24V1121.24H81.2173V-135.5Z" fill="white"/>
</mask>
<g mask="url(#mask0_1_2876)">
<path fill-rule="evenodd" clip-rule="evenodd" d="M1338.94 387.11C1339.34 378.147 1335.17 369.733 1327.8 364.608L618.802 -128.548C613.089 -132.525 606.161 -134.043 599.299 -132.826C592.441 -131.605 586.466 -127.796 582.485 -122.094L88.1779 584.91C85.3429 588.965 83.7289 593.712 83.5138 598.63C83.1229 607.595 87.2909 616.005 94.6588 621.136L803.655 1114.29C809.374 1118.27 816.295 1119.79 823.161 1118.57C830.018 1117.34 835.994 1113.54 839.977 1107.84L1334.28 400.835C1337.12 396.778 1338.73 392.029 1338.94 387.11ZM81.2449 598.532C81.4809 593.182 83.2359 588.026 86.3189 583.616L580.62 -123.389C584.952 -129.585 591.445 -133.727 598.903 -135.054C606.361 -136.378 613.888 -134.727 620.102 -130.406L1329.1 362.752C1337.11 368.326 1341.64 377.468 1341.21 387.212C1340.98 392.56 1339.23 397.717 1336.14 402.13L841.837 1109.13C837.507 1115.33 831.017 1119.47 823.559 1120.79C816.103 1122.12 808.574 1120.47 802.357 1116.14L93.3638 622.988C85.3518 617.418 80.8189 608.274 81.2449 598.532Z" fill="#DADADA"/>
</g>
<path fill-rule="evenodd" clip-rule="evenodd" d="M1306.01 379.979C1306.39 371.38 1302.43 363.258 1295.42 358.253L610.484 -131.187C604.971 -135.131 598.246 -136.695 591.551 -135.594C584.855 -134.491 578.994 -130.854 575.041 -125.354L84.4594 557.654C81.5814 561.665 79.9454 566.375 79.7314 571.278C79.3554 579.879 83.3134 588.002 90.3214 593.002L775.257 1082.45C786.649 1090.58 802.545 1087.97 810.698 1076.62L1301.28 393.604C1304.16 389.595 1305.8 384.881 1306.01 379.979ZM77.4654 571.176C77.6964 565.837 79.4794 560.704 82.6164 556.336L573.199 -126.67C577.502 -132.663 583.889 -136.623 591.18 -137.825C598.472 -139.025 605.797 -137.321 611.806 -133.028L1296.74 356.415C1304.38 361.867 1308.69 370.711 1308.28 380.077C1308.04 385.42 1306.27 390.556 1303.13 394.922L812.541 1077.93C803.66 1090.3 786.336 1093.15 773.935 1084.29L88.9984 594.844C81.3684 589.393 77.0544 580.546 77.4654 571.176Z" fill="#DADADA"/>
<path fill-rule="evenodd" clip-rule="evenodd" d="M1273.08 372.845C1273.44 364.612 1269.68 356.779 1263.05 351.896L602.168 -133.828C591.194 -141.893 575.689 -139.552 567.602 -128.61L80.7438 530.402C77.8178 534.358 76.1578 539.039 75.9438 543.931C75.5838 552.164 79.3358 559.994 85.9798 564.875L746.852 1050.6C752.173 1054.51 758.693 1056.12 765.223 1055.13C771.755 1054.15 777.508 1050.68 781.424 1045.39L1268.28 386.37C1271.21 382.415 1272.87 377.737 1273.08 372.845ZM73.6778 543.827C73.9118 538.486 75.7208 533.38 78.9148 529.062L565.776 -129.952C574.604 -141.9 591.532 -144.455 603.512 -135.65L1264.39 350.074C1271.64 355.408 1275.74 363.959 1275.34 372.946C1275.11 378.287 1273.3 383.393 1270.11 387.715L783.25 1046.73C778.972 1052.51 772.695 1056.3 765.564 1057.37C758.437 1058.45 751.315 1056.69 745.513 1052.43L84.6348 566.699C77.3828 561.367 73.2848 552.819 73.6778 543.827Z" fill="#DADADA"/>
<path fill-rule="evenodd" clip-rule="evenodd" d="M1240.16 365.711C1240.5 357.838 1236.95 350.3 1230.67 345.541L593.849 -136.468C588.73 -140.341 582.41 -141.995 576.046 -141.126C569.687 -140.258 564.043 -136.969 560.163 -131.866L77.0186 503.153C74.0476 507.063 72.3626 511.703 72.1496 516.582C71.8056 524.453 75.3516 531.991 81.6376 536.75L718.46 1018.76C729.017 1026.75 744.128 1024.69 752.143 1014.16L1235.29 379.141C1238.26 375.234 1239.94 370.591 1240.16 365.711ZM69.8856 516.48C70.1166 511.14 71.9606 506.056 75.2136 501.784L558.354 -133.234C562.604 -138.818 568.778 -142.416 575.739 -143.369C582.701 -144.319 589.618 -142.508 595.22 -138.271L1232.04 343.74C1238.92 348.946 1242.8 357.196 1242.42 365.811C1242.18 371.151 1240.35 376.235 1237.09 380.51L753.951 1015.53C745.179 1027.05 728.643 1029.31 717.086 1020.56L80.2696 538.55C73.3896 533.343 69.5076 525.098 69.8856 516.48Z" fill="#DADADA"/>
<path fill-rule="evenodd" clip-rule="evenodd" d="M1207.23 358.581C1207.56 351.065 1204.22 343.815 1198.28 339.185L585.529 -139.109C580.612 -142.945 574.492 -144.645 568.296 -143.891C562.096 -143.138 556.568 -140.024 552.721 -135.121L73.2981 475.902C70.2751 479.751 68.5671 484.357 68.3541 489.228C68.0251 496.743 71.3721 503.993 77.3021 508.624L690.057 986.919C694.977 990.754 701.093 992.452 707.292 991.699C713.489 990.948 719.02 987.831 722.869 982.929L1202.29 371.908C1205.31 368.06 1207.02 363.449 1207.23 358.581ZM66.0871 489.127C66.3231 483.782 68.1961 478.731 71.5111 474.501L550.934 -136.516C555.154 -141.894 561.224 -145.311 568.019 -146.136C574.818 -146.963 581.531 -145.1 586.928 -140.889L1199.68 337.404C1206.19 342.482 1209.86 350.436 1209.5 358.679C1209.27 364.023 1207.39 369.08 1204.08 373.306L724.655 984.324C720.434 989.708 714.364 993.124 707.567 993.944C700.769 994.776 694.053 992.911 688.663 988.701L75.9031 510.407C69.3971 505.327 65.7281 497.372 66.0871 489.127Z" fill="#DADADA"/>
<path fill-rule="evenodd" clip-rule="evenodd" d="M1174.32 351.448C1174.63 344.288 1171.49 337.33 1165.9 332.831L577.208 -141.749C567.47 -149.599 553.146 -148.087 545.279 -138.377L69.5728 448.654C66.5038 452.44 64.7628 457.016 64.5498 461.877C64.2358 469.039 67.3838 475.995 72.9638 480.495L661.66 955.072C666.379 958.88 672.298 960.62 678.325 959.985C684.359 959.344 689.78 956.405 693.589 951.702L1169.29 364.676C1172.37 360.884 1174.11 356.308 1174.32 351.448ZM62.2848 461.779C62.5168 456.431 64.4298 451.401 67.8108 447.229L543.513 -139.799C552.166 -150.479 567.921 -152.143 578.633 -143.51L1167.33 331.072C1173.47 336.016 1176.93 343.672 1176.58 351.546C1176.35 356.892 1174.44 361.924 1171.06 366.1L695.355 953.122C691.165 958.299 685.198 961.533 678.568 962.233C671.933 962.936 665.423 961.02 660.236 956.833L71.5388 482.255C65.3988 477.308 61.9398 469.652 62.2848 461.779Z" fill="#DADADA"/>
<path fill-rule="evenodd" clip-rule="evenodd" d="M1141.41 344.313C1141.71 337.408 1138.84 330.903 1133.52 326.472L568.889 -144.393C564.368 -148.158 558.654 -149.947 552.787 -149.425C546.921 -148.904 541.613 -146.135 537.837 -141.63L65.8519 421.401C62.7199 425.137 60.9529 429.672 60.7419 434.523C60.4409 441.432 63.3189 447.939 68.6289 452.368L633.266 923.234C642.594 931.012 656.521 929.773 664.316 920.471L1136.3 357.441C1139.43 353.707 1141.2 349.168 1141.41 344.313ZM58.4779 434.422C58.7089 429.075 60.6579 424.068 64.1099 419.947L536.094 -143.082C540.261 -148.052 546.115 -151.105 552.585 -151.678C559.054 -152.254 565.361 -150.281 570.343 -146.127L1134.98 324.734C1140.84 329.622 1144.01 336.792 1143.68 344.415C1143.44 349.77 1141.49 354.773 1138.04 358.89L666.057 921.923C657.457 932.181 642.096 933.544 631.808 924.97L67.1729 454.109C61.3119 449.22 58.1419 442.046 58.4779 434.422Z" fill="#DADADA"/>
<path fill-rule="evenodd" clip-rule="evenodd" d="M1108.51 337.183C1108.79 330.624 1106.11 324.406 1101.14 320.11L560.568 -147.032C556.249 -150.768 550.732 -152.601 545.03 -152.193C539.329 -151.787 534.132 -149.193 530.388 -144.886L62.1305 394.149C58.9365 397.825 57.1385 402.326 56.9265 407.174C56.6395 413.731 59.3255 419.953 64.2905 424.247L604.865 891.393C609.187 895.124 614.705 896.955 620.406 896.55C626.102 896.147 631.299 893.552 635.042 889.245L1103.3 350.207C1106.5 346.535 1108.3 342.03 1108.51 337.183ZM54.6595 407.076C54.8935 401.713 56.8865 396.732 60.4155 392.67L528.674 -146.367C532.814 -151.132 538.564 -154.002 544.868 -154.45C551.174 -154.9 557.277 -152.873 562.052 -148.744L1102.63 318.4C1108.12 323.151 1111.09 330.032 1110.78 337.282C1110.54 342.642 1108.55 347.624 1105.02 351.693L636.756 890.723C632.621 895.491 626.869 898.36 620.566 898.811C614.261 899.255 608.157 897.232 603.384 893.101L62.8055 425.955C57.3105 421.206 54.3445 414.327 54.6595 407.076Z" fill="#DADADA"/>
<path fill-rule="evenodd" clip-rule="evenodd" d="M1075.61 330.05C1075.88 323.843 1073.39 317.903 1068.76 313.75L552.242 -149.681C548.125 -153.378 542.808 -155.252 537.274 -154.96C531.741 -154.67 526.65 -152.248 522.946 -148.139L58.4038 366.902C55.1928 370.458 53.3108 375.05 53.1018 379.823C52.8328 386.029 55.3308 391.971 59.9558 396.12L576.472 859.555C580.588 863.248 585.905 865.125 591.444 864.836C596.973 864.544 602.063 862.123 605.771 858.017L1070.31 342.973C1073.52 339.416 1075.41 334.823 1075.61 330.05ZM50.8348 379.726C51.0688 374.428 53.1538 369.333 56.7178 365.39L521.259 -149.652C525.368 -154.208 531.015 -156.898 537.156 -157.221C543.296 -157.544 549.193 -155.461 553.763 -151.361L1070.28 312.071C1075.41 316.674 1078.18 323.264 1077.88 330.149C1077.65 335.446 1075.56 340.535 1072 344.487L607.456 859.529C603.347 864.082 597.701 866.773 591.561 867.095C585.424 867.418 579.524 865.339 574.955 861.234L58.4378 397.799C53.3048 393.199 50.5368 386.608 50.8348 379.726Z" fill="#DADADA"/>
<path fill-rule="evenodd" clip-rule="evenodd" d="M1042.73 322.917C1042.98 317.055 1040.67 311.396 1036.38 307.388L543.922 -152.325C540.001 -155.987 534.882 -157.907 529.517 -157.729C524.149 -157.552 519.169 -155.302 515.497 -151.39L54.678 339.654C51.4 343.146 49.48 347.699 49.271 352.474C49.016 358.337 51.33 363.995 55.617 368.002L548.076 827.713C556.169 835.273 568.922 834.855 576.499 826.783L1037.32 335.737C1040.6 332.244 1042.52 327.692 1042.73 322.917ZM47.004 352.376C47.238 347.062 49.375 341.994 53.02 338.108L513.842 -152.936C517.926 -157.289 523.464 -159.794 529.438 -159.99C535.413 -160.186 541.107 -158.052 545.472 -153.976L1037.93 305.739C1042.71 310.196 1045.28 316.492 1044.99 323.016C1044.76 328.328 1042.63 333.394 1038.98 337.285L578.153 828.33C569.722 837.313 555.531 837.778 546.526 829.366L54.069 369.652C49.295 365.196 46.721 358.895 47.004 352.376Z" fill="#DADADA"/>
<path fill-rule="evenodd" clip-rule="evenodd" d="M1009.85 315.785C1010.09 310.267 1007.96 304.886 1004 301.029L535.6 -154.973C527.911 -162.456 515.551 -162.307 508.049 -154.641L50.9481 312.408C47.5981 315.826 45.6361 320.347 45.4291 325.119C45.1861 330.644 47.3221 336.021 51.2851 339.879L519.679 795.883C527.37 803.363 539.726 803.21 547.226 795.548L1004.33 328.502C1007.68 325.079 1009.64 320.561 1009.85 315.785ZM43.1641 325.018C43.3951 319.69 45.5861 314.647 49.3251 310.825L506.428 -156.224C514.804 -164.781 528.599 -164.946 537.181 -156.59L1005.58 299.409C1010 303.715 1012.39 309.721 1012.12 315.886C1011.88 321.217 1009.7 326.262 1005.95 330.083L548.849 797.129C540.475 805.687 526.679 805.855 518.094 797.498L49.7031 341.495C45.2781 337.19 42.8951 331.184 43.1641 325.018Z" fill="#DADADA"/>
<path fill-rule="evenodd" clip-rule="evenodd" d="M976.982 308.653C977.211 303.467 975.25 298.371 971.612 294.668L527.275 -157.62C519.994 -165.029 508.03 -165.152 500.602 -157.895L47.2207 285.156C43.7937 288.507 41.7877 292.985 41.5767 297.77C41.3517 302.955 43.3137 308.051 46.9517 311.758L491.282 764.048C498.566 771.457 510.528 771.576 517.959 764.313L971.34 321.266C974.768 317.916 976.773 313.435 976.982 308.653ZM39.3107 297.67C39.5457 292.314 41.7947 287.296 45.6337 283.541L499.013 -159.512C507.336 -167.642 520.738 -167.503 528.894 -159.204L973.232 293.082C977.311 297.232 979.502 302.943 979.25 308.751C979.015 314.111 976.767 319.127 972.927 322.882L519.548 765.936C511.231 774.065 497.822 773.928 489.667 765.63L45.3297 313.345C41.2537 309.192 39.0577 303.477 39.3107 297.67Z" fill="#DADADA"/>
<path fill-rule="evenodd" clip-rule="evenodd" d="M944.125 301.522C944.339 296.596 942.601 291.899 939.222 288.296L518.946 -160.269C515.622 -163.821 511.103 -165.871 506.233 -166.036C501.359 -166.201 496.713 -164.463 493.151 -161.145L43.4935 257.911C39.9785 261.186 37.9295 265.626 37.7195 270.418C37.5045 275.343 39.2425 280.04 42.6165 283.643L462.894 732.209C469.766 739.543 481.336 739.931 488.691 733.083L938.352 314.027C941.867 310.754 943.913 306.312 944.125 301.522ZM35.4525 270.315C35.6885 264.926 37.9915 259.941 41.9385 256.261L491.602 -162.798C495.607 -166.531 500.828 -168.483 506.31 -168.296C511.787 -168.111 516.863 -165.808 520.609 -161.814L940.881 286.753C944.678 290.803 946.633 296.084 946.393 301.621C946.157 307.009 943.851 312.003 939.898 315.68L490.238 734.739C481.976 742.438 468.962 742.001 461.235 733.758L40.9605 285.187C37.1685 281.134 35.2085 275.858 35.4525 270.315Z" fill="#DADADA"/>
<path fill-rule="evenodd" clip-rule="evenodd" d="M911.277 294.39C911.48 289.792 909.902 285.372 906.839 281.932L510.623 -162.92C504.156 -170.179 492.975 -170.842 485.697 -164.397L39.7563 230.668C36.1533 233.858 34.0543 238.259 33.8453 243.064C33.6453 247.658 35.2213 252.086 38.2853 255.524L434.501 700.377C440.967 707.638 452.144 708.301 459.428 701.851L905.365 306.789C908.97 303.598 911.07 299.193 911.277 294.39ZM31.5773 242.965C31.8153 237.548 34.1863 232.577 38.2533 228.976L484.191 -166.089C492.403 -173.362 505.021 -172.615 512.319 -164.424L908.537 280.431C911.992 284.31 913.774 289.302 913.546 294.489C913.309 299.911 910.938 304.878 906.875 308.481L460.933 703.55C452.718 710.817 440.1 710.073 432.801 701.879L36.5883 257.031C33.1313 253.147 31.3513 248.153 31.5773 242.965Z" fill="#DADADA"/>
<path fill-rule="evenodd" clip-rule="evenodd" d="M878.448 287.26C878.635 282.99 877.215 278.834 874.455 275.561L502.298 -165.574C499.365 -169.054 495.244 -171.187 490.703 -171.576C486.158 -171.967 481.733 -170.572 478.245 -167.644L36.0237 203.426C32.3787 206.483 30.1707 210.961 29.9617 215.712C29.7757 219.983 31.1907 224.136 33.9527 227.412L406.109 668.549C412.168 675.73 422.961 676.658 430.163 670.615L872.384 299.551C876.029 296.492 878.24 292.011 878.448 287.26ZM27.6937 215.614C27.9297 210.228 30.4337 205.156 34.5607 201.694L476.783 -169.376C480.739 -172.691 485.748 -174.275 490.896 -173.831C496.044 -173.388 500.709 -170.972 504.034 -167.031L876.188 274.106C879.318 277.815 880.923 282.521 880.713 287.357C880.479 292.741 877.974 297.816 873.844 301.283L431.622 672.348C423.463 679.195 411.237 678.142 404.374 670.005L32.2197 228.865C29.0897 225.158 27.4827 220.452 27.6937 215.614Z" fill="#DADADA"/>
<path fill-rule="evenodd" clip-rule="evenodd" d="M845.628 280.129C845.799 276.175 844.536 272.292 842.068 269.19L493.971 -168.228C491.23 -171.671 487.31 -173.846 482.93 -174.349C478.552 -174.853 474.241 -173.625 470.792 -170.895L32.2865 176.18C28.5395 179.146 26.2715 183.584 26.0615 188.361C25.8915 192.309 27.1545 196.193 29.6215 199.299L377.715 636.719C383.373 643.829 393.772 645.024 400.901 639.383L839.399 292.313C843.149 289.346 845.421 284.903 845.628 280.129ZM23.7945 188.259C24.0285 182.83 26.6125 177.783 30.8795 174.406L469.378 -172.667C473.305 -175.774 478.209 -177.17 483.19 -176.597C488.171 -176.024 492.631 -173.552 495.749 -169.634L843.844 267.785C846.651 271.312 848.091 275.733 847.894 280.229C847.656 285.658 845.079 290.709 840.812 294.082L402.306 641.157C394.21 647.571 382.376 646.211 375.941 638.126L27.8435 200.709C25.0385 197.174 23.5985 192.754 23.7945 188.259Z" fill="#DADADA"/>
<path fill-rule="evenodd" clip-rule="evenodd" d="M812.824 273.002C812.983 269.361 811.866 265.745 809.68 262.816L485.643 -170.887C480.388 -177.918 470.379 -179.379 463.326 -174.142L28.5532 148.937C24.6902 151.804 22.3542 156.203 22.1452 161.002C21.9882 164.642 23.1062 168.256 25.2902 171.19L349.329 604.896C354.581 611.926 364.591 613.385 371.639 608.148L806.422 285.071C810.283 282.203 812.613 277.805 812.824 273.002ZM19.8782 160.904C20.1172 155.418 22.7872 150.397 27.1962 147.117L461.972 -175.956C470.025 -181.94 481.461 -180.271 487.463 -172.238L811.497 261.466C813.994 264.809 815.275 268.941 815.091 273.101C814.852 278.586 812.185 283.609 807.775 286.888L372.997 609.961C364.943 615.944 353.51 614.273 347.508 606.246L23.4712 172.541C20.9742 169.194 19.6972 165.062 19.8782 160.904Z" fill="#DADADA"/>
<path fill-rule="evenodd" clip-rule="evenodd" d="M780.037 265.877C780.183 262.493 779.236 259.231 777.293 256.443L477.316 -173.546C472.464 -180.502 462.843 -182.225 455.866 -177.389L24.8074 121.694C20.8284 124.456 18.4244 128.811 18.2134 133.647C18.0674 137.031 19.0174 140.291 20.9614 143.077L320.934 573.071C325.786 580.031 335.406 581.752 342.384 576.912L773.445 277.832C777.424 275.072 779.825 270.711 780.037 265.877ZM15.9484 133.547C16.1894 128.002 18.9484 123.002 23.5154 119.835L454.57 -179.245C462.573 -184.794 473.611 -182.818 479.176 -174.839L779.153 255.151C781.383 258.349 782.474 262.09 782.302 265.974C782.061 271.522 779.305 276.521 774.744 279.69L343.678 578.773C335.678 584.322 324.639 582.345 319.074 574.366L19.0994 144.374C16.8674 141.177 15.7784 137.435 15.9484 133.547Z" fill="#DADADA"/>
<path fill-rule="evenodd" clip-rule="evenodd" d="M747.272 258.751C747.407 255.668 746.591 252.666 744.904 250.065L468.988 -176.211C464.535 -183.086 455.302 -185.073 448.404 -180.635L21.065 94.4475C17.017 97.0576 14.472 101.484 14.264 106.292C14.13 109.373 14.95 112.373 16.635 114.974L292.548 541.255C297 548.128 306.232 550.113 313.131 545.673L740.472 270.589C744.518 267.983 747.059 263.558 747.272 258.751ZM11.998 106.192C12.24 100.65 15.171 95.5505 19.836 92.5495L447.174 -182.536C455.12 -187.652 465.762 -185.362 470.894 -177.436L746.808 248.838C748.75 251.835 749.693 255.297 749.538 258.849C749.297 264.388 746.367 269.49 741.699 272.489L314.361 547.575C306.415 552.689 295.773 550.403 290.643 542.479L14.724 116.206C12.788 113.205 11.842 109.745 11.998 106.192Z" fill="#DADADA"/>
<path fill-rule="evenodd" clip-rule="evenodd" d="M714.522 251.622C714.645 248.839 713.949 246.092 712.517 243.684L460.663 -178.876C456.606 -185.677 447.758 -187.924 440.939 -183.883L17.3216 67.2066C13.1336 69.6877 10.5045 74.0727 10.2926 78.9316C10.1705 81.7187 10.8665 84.4637 12.3015 86.8746L264.157 509.434C268.213 516.236 277.059 518.483 283.876 514.438L707.498 263.349C711.686 260.867 714.31 256.484 714.522 251.622ZM8.02755 78.8326C8.27355 73.2066 11.3125 68.1327 16.1595 65.2626L439.777 -185.828C447.675 -190.507 457.917 -187.905 462.608 -180.031L714.463 242.525C716.127 245.316 716.929 248.493 716.79 251.725C716.544 257.35 713.503 262.422 708.657 265.297L285.036 516.387C277.143 521.063 266.899 518.464 262.207 510.591L10.3505 88.0306C8.68955 85.2426 7.88655 82.0587 8.02755 78.8326Z" fill="#DADADA"/>
<path fill-rule="evenodd" clip-rule="evenodd" d="M681.798 244.502C681.907 242.002 681.331 239.509 680.124 237.298L452.33 -181.545C448.672 -188.271 440.212 -190.777 433.465 -187.13L13.5679 39.9615C9.23193 42.3085 6.51493 46.6465 6.29993 51.5695C6.18993 54.0705 6.76693 56.5625 7.97093 58.7755L235.768 477.618C239.426 484.343 247.886 486.85 254.632 483.203L674.53 256.107C678.867 253.762 681.584 249.426 681.798 244.502ZM4.03393 51.4725C4.27993 45.8335 7.51793 40.6635 12.4879 37.9765L432.386 -189.119C440.229 -193.359 450.072 -190.445 454.326 -182.622L682.121 236.219C683.521 238.796 684.189 241.689 684.066 244.601C683.817 250.238 680.577 255.41 675.614 258.099L255.712 485.193C247.869 489.435 238.028 486.52 233.772 478.694L5.97993 59.8545C4.57893 57.2775 3.90593 54.3805 4.03393 51.4725Z" fill="#DADADA"/>
<mask id="mask1_1_2876" style="mask-type:luminance" maskUnits="userSpaceOnUse" x="0" y="-195" width="652" height="651">
<path fill-rule="evenodd" clip-rule="evenodd" d="M0 -194.004H651.383V455.594H0V-194.004Z" fill="white"/>
</mask>
<g mask="url(#mask1_1_2876)">
<path fill-rule="evenodd" clip-rule="evenodd" d="M649.102 237.38C649.198 235.158 648.726 232.922 647.735 230.91L444.001 -184.217C440.742 -190.866 432.663 -193.631 425.996 -190.378L9.81476 12.7225C5.38176 14.8855 2.49776 19.2865 2.28276 24.2065C2.18576 26.4305 2.65476 28.6685 3.64376 30.6815L207.378 445.808C210.643 452.455 218.717 455.22 225.385 451.965L641.566 248.87C645.996 246.705 648.885 242.303 649.102 237.38ZM0.0147602 24.1075C0.26576 18.3575 3.64076 13.2145 8.81476 10.6905L424.996 -192.411C432.786 -196.21 442.228 -192.982 446.042 -185.212L649.779 229.915C650.931 232.266 651.482 234.881 651.369 237.48C651.117 243.231 647.745 248.375 642.563 250.9L226.383 453.997C218.591 457.802 209.153 454.573 205.34 446.802L1.60176 31.6735C0.44876 29.3265 -0.0992398 26.7075 0.0147602 24.1075Z" fill="#DADADA"/>
</g>
</g>
</svg>
